<?xml version="1.0" encoding="utf-8"?>
<!-- Generator: Adobe Illustrator 23.1.0, SVG Export Plug-In . SVG Version: 6.00 Build 0)  -->
<svg version="1.1" xmlns="http://www.w3.org/2000/svg" xmlns:xlink="http://www.w3.org/1999/xlink" x="0px" y="0px"
	 viewBox="0 0 150 150" style="enable-background:new 0 0 150 150;" xml:space="preserve">
<style type="text/css">
	.st0{display:none;}
	.st1{display:inline;fill:#D81958;}
	.st2{fill:#FFFFFF;stroke:#231F20;stroke-width:3;stroke-linecap:round;stroke-linejoin:round;stroke-miterlimit:10;}
</style>
<g id="Layer_2" class="st0">
	<rect x="0.5" y="0.5" class="st1" width="150" height="149"/>
</g>
<g id="Layer_1">
	<path class="st2" d="M79.24,20.66c-25.66,0-46.46,22.78-46.46,50.87c0,23.24,26.25,54.97,46.46,61.33
		c20.02-6.36,46.62-38.22,46.46-61.33C125.7,43.43,104.9,20.66,79.24,20.66z M71.28,81.1c-2.96,5.13-11.66,5.66-19.43,1.17
		c-7.77-4.48-11.66-12.28-8.7-17.41c2.96-5.13,11.66-5.66,19.43-1.17C70.34,68.17,74.24,75.97,71.28,81.1z M106.17,81.16
		c-7.43,5.03-16.14,5.13-19.46,0.23s0-12.96,7.43-17.99c7.43-5.03,16.14-5.13,19.46-0.23C116.92,68.07,113.6,76.13,106.17,81.16z"/>
</g>
</svg>
