<?xml version="1.0" encoding="utf-8"?>
<!-- Generator: Adobe Illustrator 23.1.0, SVG Export Plug-In . SVG Version: 6.00 Build 0)  -->
<svg version="1.1" xmlns="http://www.w3.org/2000/svg" xmlns:xlink="http://www.w3.org/1999/xlink" x="0px" y="0px"
	 viewBox="0 0 150 150" style="enable-background:new 0 0 150 150;" xml:space="preserve">
<style type="text/css">
	.st0{display:none;}
	.st1{display:inline;fill:#D81958;}
	.st2{fill:#FFFFFF;stroke:#231F20;stroke-width:3;stroke-miterlimit:10;}
	.st3{fill:none;stroke:#231F20;stroke-width:3;stroke-miterlimit:10;}
	.st4{fill:none;stroke:#231F20;stroke-width:3;stroke-linecap:round;stroke-linejoin:round;stroke-miterlimit:10;}
	.st5{fill:#FFFFFF;stroke:#231F20;stroke-width:3;stroke-linecap:round;stroke-linejoin:round;stroke-miterlimit:10;}
</style>
<g id="Layer_2" class="st0">
	<rect x="0.5" y="0.5" class="st1" width="150" height="149"/>
</g>
<g id="Layer_1">
	<path class="st2" d="M72.35,23.44c-30.19,0-54.66,24.47-54.66,54.66c0,14.79,5.89,28.19,15.43,38.03c2.99-0.13,5.99-0.25,8.99-0.26
		c6.99-0.01,13.99,0.09,20.98,0.19c14.26,0.22,28.53,0.52,42.79,0.54c0.4,0,0.8,0.02,1.2,0.06c0.12,0.01,0.25,0.03,0.37,0.05
		c0.2-0.03,0.4-0.05,0.61-0.06c0.33-0.03,0.65-0.05,0.98-0.05c0.33,0,0.66,0.02,0.99,0.05c0.21,0.02,0.41,0.04,0.62,0.07
		c0.13-0.02,0.25-0.04,0.38-0.06c9.86-9.89,15.97-23.5,15.97-38.56C127.01,47.91,102.54,23.44,72.35,23.44z M73.32,115.24
		c-21.45,0-38.84-17.39-38.84-38.84s17.39-38.84,38.84-38.84s38.84,17.39,38.84,38.84S94.78,115.24,73.32,115.24z"/>
	<line class="st3" x1="45.95" y1="103.95" x2="100.7" y2="103.95"/>
	<line class="st3" x1="73.32" y1="37.55" x2="73.32" y2="23.45"/>
	<line class="st3" x1="63.85" y1="103.95" x2="63.85" y2="114.07"/>
	<line class="st3" x1="82.8" y1="114.07" x2="82.8" y2="103.95"/>
	<line class="st4" x1="48.07" y1="91.41" x2="66.21" y2="73.28"/>
	<line class="st4" x1="45.95" y1="83.58" x2="69.75" y2="59.54"/>
	<line class="st4" x1="44.53" y1="76.4" x2="59.56" y2="61.36"/>
	<path class="st4" d="M96.16,94.42c0,0,8.05-5.37,8.16-19.53"/>
	<path class="st4" d="M102.17,66.41c0,0-9.12-24.36-33.6-20.72"/>
	<rect x="10.38" y="69.09" class="st4" width="7.32" height="15.94"/>
	<path class="st5" d="M112.07,116.76l-78.87-0.08c-2.05,0-3.71,1.66-3.72,3.71l-0.01,7.23c0,2.05,1.66,3.71,3.71,3.72l78.87,0.08
		c2.05,0,3.71-1.66,3.72-3.71l0.01-7.23C115.78,118.42,114.12,116.76,112.07,116.76z M42.8,126.9c-1.74,0-3.15-1.41-3.15-3.15
		c0-1.74,1.41-3.15,3.15-3.15c1.74,0,3.15,1.41,3.15,3.15C45.95,125.49,44.54,126.9,42.8,126.9z M54.73,127.19
		c-1.74,0-3.15-1.41-3.15-3.15s1.41-3.15,3.15-3.15c1.74,0,3.15,1.41,3.15,3.15S56.47,127.19,54.73,127.19z"/>
	<line class="st4" x1="46.98" y1="29.68" x2="36.84" y2="14.24"/>
	<line class="st4" x1="100.24" y1="29.68" x2="112.17" y2="15.32"/>
</g>
</svg>
