<?xml version="1.0" encoding="utf-8"?>
<!-- Generator: Adobe Illustrator 23.1.0, SVG Export Plug-In . SVG Version: 6.00 Build 0)  -->
<svg version="1.1" xmlns="http://www.w3.org/2000/svg" xmlns:xlink="http://www.w3.org/1999/xlink" x="0px" y="0px"
	 viewBox="0 0 150 150" style="enable-background:new 0 0 150 150;" xml:space="preserve">
<style type="text/css">
	.st0{display:none;}
	.st1{display:inline;fill:#D81958;}
	.st2{fill:#FFFFFF;stroke:#231F20;stroke-width:3;stroke-miterlimit:10;}
	.st3{fill:#FFFFFF;stroke:#000000;stroke-width:2;stroke-linecap:round;stroke-linejoin:round;stroke-miterlimit:10;}
	.st4{fill:#FFFFFF;stroke:#000000;stroke-width:3;stroke-miterlimit:10;}
	.st5{fill:none;stroke:#000000;stroke-width:3;stroke-miterlimit:10;}
	.st6{fill:none;stroke:#000000;stroke-width:2;stroke-miterlimit:10;}
	.st7{fill:none;stroke:#000000;stroke-width:2;stroke-linecap:round;stroke-miterlimit:10;}
	.st8{fill:#FFFFFF;stroke:#000000;stroke-width:3;stroke-linecap:round;stroke-linejoin:round;stroke-miterlimit:10;}
	.st9{fill:none;stroke:#000000;stroke-width:2;stroke-linecap:round;stroke-linejoin:round;stroke-miterlimit:10;}
</style>
<g id="Layer_2" class="st0">
	<rect x="0.5" y="0.5" class="st1" width="150" height="149"/>
</g>
<g id="Layer_1">
	<path class="st2" d="M188.5,74.5"/>
	<g>
		<polygon class="st3" points="50.07,95.95 50.07,95.95 50.07,95.95 		"/>
		<path class="st3" d="M64.82,109.39c-0.44-0.28-1.42-1.1-2.7-2.24l0.01,0.01c1.03,1.62-6.11,16.97-6.11,16.97l-1.28-4.84l-6.59,5.7
			l-0.27-5.33l-6.94,5.2l0.27-6.28l-4.77,1.91l0.81-4.77l-3.92,0.44l4.82-7.26l-4.45-0.23l3.76-3.87c0,0,0,0-3.82-2.08
			c1.71-2.71,15.48-6.5,16.42-6.76l0,0l0,0c-1.53-1.46-2.55-2.43-2.55-2.43s-22.16,4.09-24.36,6.36c4.17,1.43,4.17,1.43,4.17,1.43
			l-7.97,6.81l6.16-0.07l-3.82,4.79l6.24,0.83l-8.29,9.45c0,0,7.03-1.51,7.64-0.76c0.61,0.76-3.47,9.06-3.47,9.06l8.67-2.86
			c0,0,0.06,5.78-0.41,7.13c-0.47,1.35,6.33-2.84,6.33-2.84l-0.45,9.87l10.54-10.85l0.84,7.03l7.17-8.24l2.34,7.01
			C58.86,137.68,66.07,118.9,64.82,109.39z"/>
	</g>
	<g>
		<path class="st4" d="M48.74,76.68l-8.02,5.22c0,0,11.8,23.95,36.08,33.37c2.9-5.17,3.64-7.79,3.64-7.79S61.43,97.86,48.74,76.68z"
			/>
		<path class="st4" d="M80.44,107.48c0,0,56.92-27.39,49.66-83.34c0,0-47.29-5.03-81.36,52.54C55.12,85.46,60.82,94.43,80.44,107.48
			z"/>
	</g>
	<path class="st5" d="M54.44,67.78c0,0,14.04,20.79,35.24,34.24"/>
	<path class="st5" d="M111.91,25.91c0,0,4.16,12.64,18.17,17.66"/>
	<path class="st5" d="M105.36,27.72c0,0,0.96,14.4,23.08,24.03"/>
	
		<ellipse transform="matrix(0.6968 -0.7172 0.7172 0.6968 -13.6928 88.0327)" class="st6" cx="97.29" cy="60.21" rx="12.42" ry="14.37"/>
	
		<ellipse transform="matrix(0.6968 -0.7172 0.7172 0.6968 -13.5019 87.947)" class="st6" cx="97.28" cy="59.94" rx="9.4" ry="10.87"/>
	<line class="st7" x1="92.22" y1="54.2" x2="100.88" y2="54.18"/>
	<line class="st7" x1="90.07" y1="57.63" x2="104.65" y2="57.84"/>
	<line class="st7" x1="90.08" y1="61.16" x2="103.81" y2="61.25"/>
	<path class="st8" d="M104.23,90.5l5.43,6.49c0,0,10.16,18.15-22.81,20.05c1.34-2.24,10.09-8.67,5.4-15.86
		C95.39,97.95,104.23,90.5,104.23,90.5z"/>
	<path class="st9" d="M97.09,112.39c0,0,11.22-2.55,10.17-10.05"/>
	<path class="st8" d="M65.41,54.01l-6.78-5.06c0,0-18.88-10.06-19.33,23.43c2.22-1.4,8.35-10.37,15.86-5.7
		C58.3,63.45,65.41,54.01,65.41,54.01z"/>
	<path class="st9" d="M43.91,63.14c0,0,4.71-4.56,9.73-1.72"/>
</g>
</svg>
