<!-- Generator: Adobe Illustrator 23.1.0, SVG Export Plug-In . SVG Version: 6.00 Build 0)  -->
<svg version="1.1" xmlns="http://www.w3.org/2000/svg" xmlns:xlink="http://www.w3.org/1999/xlink" x="0px" y="0px" viewBox="0 0 150 150" style="enable-background:new 0 0 150 150;" xml:space="preserve" width="150" height="150">
<style type="text/css">
	.st0{display:none;}
	.st1{display:inline;fill:#FF0055;}
	.st2{fill:#FFFFFF;stroke:#000000;stroke-width:3;stroke-linecap:round;stroke-linejoin:round;stroke-miterlimit:10;}
	.st3{fill:#FFFFFF;stroke:#000000;stroke-width:3;stroke-miterlimit:10;}
	.st4{fill:#FFFFFF;stroke:#231F20;stroke-width:3;stroke-miterlimit:10;}
	.st5{fill:none;stroke:#000000;stroke-width:3;stroke-miterlimit:10;}
	.st6{fill:none;stroke:#000000;stroke-width:3;stroke-linecap:round;stroke-linejoin:round;stroke-miterlimit:10;}
	.st7{fill:none;stroke:#231F20;stroke-width:3;stroke-miterlimit:10;}
	.st8{fill:none;stroke:#231F20;stroke-width:3;stroke-linecap:round;stroke-linejoin:round;stroke-miterlimit:10;}
</style>
<g id="Layer_2" class="st0">
	<rect x="-2.42" y="-0.78" class="st1" width="150" height="150" />
</g>
<g id="Layer_1">
	<path class="st2" d="M118.38,78.05H40.53l-21.27,33.27c0,3.87,3.14,7.02,7.02,7.02h109.31c3,0,5.43-2.43,5.43-5.43L118.38,78.05z    M111.6,94.54H47.78v-9.96h63.82V94.54z" />
	<path class="st3" d="M80.14,105.05c-7.34,0-13.28,5.95-13.28,13.28s5.95,13.28,13.28,13.28c7.34,0,13.28-5.95,13.28-13.28   S87.47,105.05,80.14,105.05z M80.14,125.29c-3.84,0-6.96-3.12-6.96-6.96s3.12-6.96,6.96-6.96s6.96,3.12,6.96,6.96   S83.98,125.29,80.14,125.29z" />
	<path class="st3" d="M46.76,103.58c-7.34,0-13.28,5.95-13.28,13.28c0,7.34,5.95,13.28,13.28,13.28s13.28-5.95,13.28-13.28   C60.04,109.52,54.09,103.58,46.76,103.58z M46.76,123.82c-3.84,0-6.96-3.12-6.96-6.96c0-3.84,3.12-6.96,6.96-6.96   s6.96,3.12,6.96,6.96C53.72,120.7,50.6,123.82,46.76,123.82z" />
	<path class="st3" d="M113.97,103.58c-7.34,0-13.28,5.95-13.28,13.28c0,7.34,5.95,13.28,13.28,13.28s13.28-5.95,13.28-13.28   C127.25,109.52,121.31,103.58,113.97,103.58z M113.97,123.82c-3.84,0-6.96-3.12-6.96-6.96c0-3.84,3.12-6.96,6.96-6.96   s6.96,3.12,6.96,6.96C120.93,120.7,117.82,123.82,113.97,123.82z" />
	<rect x="70.86" y="62.33" class="st2" width="40.74" height="14.48" />
	<polygon class="st3" points="61.07,60.85 53.92,60.85 50.28,78.05 57.3,78.05  " />
	<polygon class="st4" points="54.83,49.02 48.63,37.96 55.81,35.69 63.61,50.03  " />
	<rect x="97.79" y="51.79" class="st3" width="7.47" height="10.54" />
	<circle class="st3" cx="58.78" cy="55.27" r="7.16" />
	<path class="st3" d="M94.4,27.35c0,0-5.43,18.78,3.39,24.44c7.47,3.48,19.69-1.13,19.69-1.13s6.68-2.49,3.45-9.28   c-3.23-6.79-16.58-15.62-16.58-15.62S97.56,22.37,94.4,27.35z" />
	<path class="st5" d="M119.55,49.41c0,0-20.85-3.95-25.15-22.06" />
	<line class="st6" x1="104.12" y1="40.31" x2="118.22" y2="27.35" />
	<circle class="st4" cx="120.1" cy="24.84" r="4.83" />
	<path class="st3" d="M60.43,35.39L36.7,42.92c-4.6,1.46-9.52-1.09-10.98-5.69l-0.48-1.51c-1.46-4.6,1.09-9.52,5.69-10.98   l23.73-7.53c4.6-1.46,9.52,1.09,10.98,5.69l0.48,1.51C67.58,29.02,65.03,33.93,60.43,35.39z" />
	<path class="st7" d="M35.23,43.32c0,0,7.67-11.22-6.51-17.64" />
	<line class="st8" x1="42.34" y1="29.67" x2="55.68" y2="24.84" />
</g>
</svg>