<?xml version="1.0" encoding="utf-8"?>
<!-- Generator: Adobe Illustrator 23.1.0, SVG Export Plug-In . SVG Version: 6.00 Build 0)  -->
<svg version="1.1" xmlns="http://www.w3.org/2000/svg" xmlns:xlink="http://www.w3.org/1999/xlink" x="0px" y="0px"
	 viewBox="0 0 150 150" style="enable-background:new 0 0 150 150;" xml:space="preserve">
<style type="text/css">
	.st0{display:none;}
	.st1{display:inline;fill:#D81958;}
	.st2{fill:none;stroke:#000000;stroke-width:3;stroke-miterlimit:10;}
	.st3{fill:#FFFFFF;}
	.st4{fill:#FFFFFF;stroke:#000000;stroke-width:3;stroke-miterlimit:10;}
	.st5{fill:none;stroke:#000000;stroke-width:3;stroke-linecap:round;stroke-miterlimit:10;}
</style>
<g id="Layer_2" class="st0">
	<rect x="0.5" y="0.5" class="st1" width="150" height="149"/>
</g>
<g id="Layer_1">
	<path class="st2" d="M129.39,50.54c26.08,71.25-72.36,109.87-103.1,43.76C0.21,23.06,98.64-15.56,129.39,50.54z"/>
	<path class="st3" d="M124.04,53c23.26,63.56-64.54,98.01-91.97,39.04C8.8,28.48,96.61-5.97,124.04,53z"/>
	<path class="st4" d="M107.25,24.22c39.11-28.65,70.04,7.24-11.83,66.36c-112.71,82.6-102.76,11.62-71.81-3.13l4.41,10.92
		c0,0-10.28,6.92-4.38,13.21c7.38,7.87,109.53-61.25,105.79-78.86c-2.87-7.81-12.37-0.29-12.37-0.29L107.25,24.22z"/>
	<path class="st5" d="M76.05,75.89c0,0-29.26,22.81-45.04,26.85"/>
	<path class="st5" d="M58.53,80.29c0,0-18.23,12.95-30.93,16.61"/>
	<path class="st5" d="M44.55,81.44c0,0-11.02,7.25-19.54,8.99"/>
</g>
</svg>
