<!-- Generator: Adobe Illustrator 23.1.0, SVG Export Plug-In . SVG Version: 6.00 Build 0)  -->
<svg version="1.1" xmlns="http://www.w3.org/2000/svg" xmlns:xlink="http://www.w3.org/1999/xlink" x="0px" y="0px" viewBox="0 0 150 150" style="enable-background:new 0 0 150 150;" xml:space="preserve" width="150" height="150">
<style type="text/css">
	.st0{display:none;}
	.st1{display:inline;fill:#FF0055;}
	.st2{fill:#FFFFFF;stroke:#000000;stroke-width:2;stroke-miterlimit:10;}
	.st3{fill:#FFFFFF;stroke:#000000;stroke-width:3;stroke-miterlimit:10;}
	.st4{display:none;fill:#FFFFFF;stroke:#000000;stroke-width:3;stroke-miterlimit:10;}
	.st5{fill:none;stroke:#000000;stroke-width:3;stroke-miterlimit:10;}
	.st6{fill:none;stroke:#000000;stroke-width:3;stroke-linecap:round;stroke-miterlimit:10;}
	.st7{fill:#F9DD38;stroke:#000000;stroke-width:3;stroke-miterlimit:10;}
	.st8{fill:#FFFFFF;stroke:#000000;stroke-width:2;stroke-linecap:round;stroke-linejoin:round;stroke-miterlimit:10;}
	.st9{fill:#F9DD38;stroke:#000000;stroke-width:2;stroke-linecap:round;stroke-linejoin:round;stroke-miterlimit:10;}
	.st10{fill:#F9DD38;stroke:#000000;stroke-width:2;stroke-miterlimit:10;}
</style>
<g id="Layer_2" class="st0">
	<rect x="-2.42" y="-0.78" class="st1" width="150" height="150" />
</g>
<g id="Layer_1">
	<circle class="st2" cx="101.5" cy="42.5" r="6" />
	<path class="st3" d="M42.78,16.67c0,0,20.76-6.7,31.86,5.12c3.77,7.48,11.02,17.11,22.01,25.77s26.6,15.93,30.65,16.62   c3.29,2.43,14.03,18.12,11.17,30.55c0,0,0.12,10.76-10.91,8.85c-11.03-1.91-33.95-17.82-33.95-17.82s-21.72-16.5-34.26-28.3   C45.43,44.34,36.33,28.86,36.8,29.47C36.8,29.47,33.16,22.7,42.78,16.67z" />
	<path class="st3" d="M42.78,16.67c0,0,4.7,24.33,38.93,49.94s38.74,27.35,56.68,29.26" />
	<path class="st4" d="M127.3,64.18c0,0,15.88-18.01-9.84-38.9s-42.82-3.49-42.82-3.49S88.09,50.86,127.3,64.18z" />
	<path class="st3" d="M117.61,25.33C90.86,3.7,73.4,21.32,73.4,21.32s14.18,29.89,54.76,43.92   C128.16,65.25,144.35,46.97,117.61,25.33z M123.75,62.58C89,50.57,76.86,24.98,76.86,24.98s14.95-15.09,37.85,3.43   S123.75,62.58,123.75,62.58z" />
	<path class="st5" d="M117.46,25.28" />
	<path class="st5" d="M74.5,21.5c0,0,13.59,29.36,52.8,42.68" />
	<path class="st6" d="M93.56,25.1c0,0,8.58-2.37,13.73,4.6" />
	<circle class="st7" cx="71.65" cy="41.85" r="5.65" />
	<circle class="st7" cx="89.05" cy="58.23" r="5.65" />
	<circle class="st7" cx="108.86" cy="72.15" r="5.65" />
	<line class="st8" x1="101" y1="36" x2="101" y2="32" />
	<line class="st8" x1="107.28" y1="40.88" x2="111" y2="41" />
	<line class="st9" x1="32" y1="85" x2="62" y2="70" />
	<line class="st9" x1="35" y1="96" x2="66" y2="74" />
	<line class="st9" x1="51" y1="110" x2="63" y2="94" />
	<line class="st9" x1="55" y1="92" x2="68" y2="80" />
	<line class="st10" x1="17" y1="85" x2="64" y2="63" />
	<line class="st10" x1="79.9" y1="75" x2="51" y2="124" />
</g>
</svg>